<?xml version="1.0" encoding="utf-8"?>
<!-- Generator: Adobe Illustrator 13.0.2, SVG Export Plug-In . SVG Version: 6.00 Build 14948)  -->
<!DOCTYPE svg PUBLIC "-//W3C//DTD SVG 1.1//EN" "http://www.w3.org/Graphics/SVG/1.1/DTD/svg11.dtd">
<svg version="1.1" id="Calque_1" xmlns="http://www.w3.org/2000/svg" xmlns:xlink="http://www.w3.org/1999/xlink" x="0px" y="0px"
	 width="285px" height="30.374px" viewBox="-34 -3.564 285 30.374" enable-background="new -34 -3.564 285 30.374"
	 xml:space="preserve">
<g>
	<polygon fill="none" stroke="#FDC734" stroke-width="0.5" points="113.979,7.345 119.454,16.827 113.979,26.31 103.027,26.31 
		97.552,16.827 103.027,7.345 	"/>
	<polygon fill="none" stroke="#FDC734" stroke-width="0.5" points="113.979,7.345 119.454,16.827 113.979,26.31 103.027,26.31 
		97.552,16.827 103.027,7.345 	"/>
	<polygon fill="none" stroke="#FDC734" stroke-width="0.5" points="113.979,7.345 119.454,16.827 113.979,26.31 103.027,26.31 
		97.552,16.827 103.027,7.345 	"/>
	<polygon fill="none" stroke="#FDC734" stroke-width="0.5" points="113.979,7.345 119.454,16.827 113.979,26.31 103.027,26.31 
		97.552,16.827 103.027,7.345 	"/>
	<polygon fill="#FFA600" points="133.215,-3.564 138.689,5.917 133.215,15.402 122.262,15.402 116.782,5.917 122.262,-3.564 	"/>
	<polygon fill="#FFFFFF" stroke="#FFA600" points="113.979,7.345 119.454,16.827 113.979,26.31 103.027,26.31 97.552,16.827 
		103.027,7.345 	"/>
	<polygon fill="#FFA600" points="94.225,-3.564 99.699,5.917 94.225,15.402 83.272,15.402 77.792,5.917 83.272,-3.564 	"/>
	<line fill="none" stroke="#FFA600" stroke-width="0.75" x1="165.303" y1="8.712" x2="251" y2="8.712"/>
	<line fill="none" stroke="#FFA600" stroke-width="0.75" x1="-34" y1="8.712" x2="51.697" y2="8.712"/>
</g>
</svg>
